<?xml version="1.0" encoding="UTF-8"?>
<svg version="1.1" xmlns="http://www.w3.org/2000/svg" width="512" height="511">
<path d="M0 0 C0.7760484 -0.00205263 1.55209681 -0.00410527 2.35166183 -0.0062201 C4.96158069 -0.01189095 7.57144679 -0.01043275 10.18137074 -0.00901413 C12.06771827 -0.01159771 13.95406526 -0.01461086 15.84041148 -0.01801753 C21.03173214 -0.02609153 26.22303898 -0.02787733 31.41436517 -0.028615 C37.0102983 -0.03046485 42.60622423 -0.03801183 48.20215321 -0.04475021 C60.44180666 -0.05833679 72.68145685 -0.06435873 84.92111659 -0.06876087 C92.56217789 -0.07152268 100.20323792 -0.07575992 107.84429836 -0.08026505 C128.9961407 -0.09245801 150.14798196 -0.10279273 171.29982758 -0.10614014 C172.66747882 -0.10636177 174.03513006 -0.10658355 175.4027813 -0.10680549 C176.77372179 -0.10702613 178.14466228 -0.10724661 179.51560277 -0.10746694 C182.26591186 -0.10790949 185.01622095 -0.1083566 187.76653004 -0.10880661 C188.44844597 -0.108916 189.1303619 -0.10902539 189.83294195 -0.1091381 C211.94347274 -0.11276863 234.05397075 -0.12868886 256.16448899 -0.15199697 C279.54476598 -0.17659854 302.925019 -0.1903064 326.3053115 -0.19150805 C339.04880302 -0.19242513 351.79225161 -0.19818566 364.53573132 -0.21632767 C375.38658827 -0.23172074 386.23738903 -0.23685377 397.08825483 -0.22858956 C402.62462428 -0.22468031 408.16088051 -0.22562623 413.69723606 -0.23964691 C418.76716807 -0.252369 423.8369016 -0.25120308 428.90683327 -0.2390562 C430.73928757 -0.23709628 432.57175585 -0.24019121 434.4041905 -0.24890056 C447.36164222 -0.30657831 458.25397019 -0.00153636 468.25993824 9.13142776 C477.60812684 18.69207519 477.84307188 28.63096715 477.78133106 41.26761246 C477.7873766 43.01987441 477.79515683 44.77213109 477.8045162 46.52437848 C477.82506193 51.32663727 477.82071637 56.1285972 477.81215501 60.93088043 C477.8072179 66.11508196 477.82525211 71.29921178 477.84022999 76.48338699 C477.86572123 86.63497423 477.8693117 96.78645565 477.86462946 106.9380695 C477.86106239 115.19052951 477.86456394 123.44295742 477.87307835 131.69541359 C477.87426872 132.87025803 477.8754591 134.04510248 477.87668555 135.25554826 C477.87910908 137.64231069 477.88153734 140.02907311 477.88397031 142.41583552 C477.90572048 164.79636964 477.90139679 187.17684348 477.88920061 209.557381 C477.8788632 230.02503408 477.90137076 250.49249677 477.93939705 270.96011219 C477.97815553 291.9832238 477.99466551 313.00624533 477.98715055 334.0293929 C477.9833266 345.82948807 477.98830069 357.62942121 478.01657963 369.42948723 C478.04041148 379.47547463 478.04321256 389.52120026 478.01899929 399.56719128 C478.00722439 404.69080983 478.00501453 409.81394963 478.0290041 414.93753624 C478.05073154 419.63263439 478.04450563 424.32685438 478.01648073 429.02191152 C478.01118929 430.71565327 478.01591252 432.40946395 478.03195246 434.10313801 C478.13138423 445.39028958 476.9115197 454.86649128 469.01554739 463.61939794 C464.51382114 468.00263518 460.265716 470.40094943 454.25993824 472.13142776 C453.67718349 472.31544521 453.09442873 472.49946266 452.49401474 472.6890564 C449.27957283 473.32555075 446.09039631 473.2759039 442.82721424 473.27186966 C441.70031898 473.27632634 441.70031898 473.27632634 440.55065817 473.28087306 C438.03194662 473.28954847 435.51328268 473.29106731 432.99455738 473.29256058 C431.1892941 473.29718947 429.3840318 473.30221422 427.57877064 473.30760574 C422.6738699 473.32072249 417.76898285 473.32717296 412.86406732 473.3316164 C409.80058721 473.33454751 406.73711085 473.33865233 403.67363262 473.34312057 C394.09108722 473.35679186 384.50855037 473.36646106 374.92599589 473.37032247 C363.85930301 473.37480637 352.79273346 473.39237125 341.72607809 473.42132306 C333.17397052 473.44292126 324.62189769 473.4530257 316.06976312 473.45436358 C310.96058629 473.45541269 305.85152544 473.46134325 300.74237728 473.4791832 C295.93824593 473.49563231 291.13431816 473.49783479 286.33016872 473.48904419 C284.56650975 473.48827219 282.80283997 473.49263788 281.03920841 473.50250244 C278.63244373 473.51517554 276.22640519 473.50937085 273.81964588 473.49892044 C272.77168318 473.51100505 272.77168318 473.51100505 271.70254952 473.52333379 C266.22338864 473.46765062 263.08901969 471.96050921 259.25993824 468.13142776 C257.80004519 461.28116039 257.80004519 461.28116039 259.38493824 457.31892776 C262.42341228 453.77404138 265.00376824 452.2694621 269.68516159 451.75504684 C271.02077797 451.73909192 272.35665188 451.73945747 273.69229603 451.75288773 C274.80103859 451.74609253 274.80103859 451.74609253 275.93217999 451.73916006 C278.4041617 451.72755083 280.87560076 451.73717688 283.34758472 451.74666214 C285.12181923 451.74255634 286.89605104 451.73709542 288.6702776 451.73038101 C292.48878127 451.7186579 296.3071404 451.716171 300.12565899 451.72073746 C306.16406987 451.72754514 312.20229045 451.71168257 318.24066639 451.69234085 C331.05958008 451.65447645 343.8784772 451.64168413 356.69743824 451.63142776 C370.53293942 451.6203559 384.36835308 451.60501815 398.20379406 451.5607152 C404.2059121 451.5423543 410.2078128 451.5384683 416.20995224 451.54565048 C419.9447135 451.54717231 423.67936603 451.53638859 427.41409779 451.52227211 C429.14507671 451.51826947 430.8760763 451.51939446 432.60704708 451.52604485 C434.97182938 451.53443199 437.33585971 451.52443014 439.70059681 451.5099678 C440.3839708 451.51686174 441.0673448 451.52375567 441.77142709 451.53085852 C446.30764923 451.47689102 449.42059376 450.53970697 453.25993824 448.13142776 C456.22776672 443.67968504 456.3843271 439.73158895 456.39860344 434.47177792 C456.40407881 433.33633101 456.40955418 432.20088409 456.41519547 431.0310297 C456.41617265 429.78917251 456.41714983 428.54731531 456.41815662 427.26782608 C456.42271559 425.93442512 456.42770737 424.60102558 456.43309498 423.26762772 C456.44666589 419.5977428 456.45407452 415.92786706 456.46050973 412.25796364 C456.46864759 408.24185037 456.48251663 404.22575616 456.49566269 400.20965672 C456.52032767 392.41201292 456.53992081 384.61436457 456.55774793 376.81670247 C456.57858478 367.79810233 456.6057198 358.77952839 456.63286304 349.76094437 C456.70142009 325.94695367 456.76140271 302.13293892 456.82243824 278.31892776 C456.96681324 225.12705276 457.11118824 171.93517776 457.25993824 117.13142776 C301.49993824 117.13142776 145.73993824 117.13142776 -14.74006176 117.13142776 C-14.61631176 170.30267776 -14.49256176 223.47392776 -14.36506176 278.25642776 C-14.33106274 295.06467484 -14.29706371 311.87292191 -14.26203442 329.1905098 C-14.22213979 344.2164992 -14.22213979 344.2164992 -14.17960644 359.24248123 C-14.16068683 365.95138316 -14.14719816 372.66026938 -14.13737011 379.36919022 C-14.12602223 387.10288835 -14.10783631 394.83653402 -14.08113297 402.57019495 C-14.06768422 406.5279038 -14.05735273 410.4855523 -14.05580735 414.44328523 C-14.05435166 418.02111091 -14.04378939 421.5987887 -14.02591801 425.17656898 C-14.01876899 427.08501564 -14.02141836 428.99349121 -14.02439976 430.90194893 C-14.01693352 432.03938671 -14.00946728 433.17682449 -14.00177479 434.34873009 C-13.99949647 435.3276491 -13.99721814 436.30656811 -13.99487078 437.31515133 C-13.6009698 441.66874152 -12.62223581 445.07851035 -9.80256176 448.44392776 C-5.88603415 451.64835945 -1.86197782 451.27406982 2.94531727 451.26272964 C3.73585631 451.26484536 4.52639534 451.26696107 5.34089011 451.2691409 C7.99857165 451.27514808 10.6562058 451.27414024 13.31389332 451.27327347 C15.21590728 451.27630448 17.11792052 451.27982578 19.01993275 451.28380203 C23.12053795 451.29169577 27.22113442 451.29683773 31.32174587 451.3000927 C37.80521406 451.30599772 44.28862721 451.32253317 50.77206898 451.34143448 C52.99077412 451.34777199 55.2094793 451.35409761 57.42818451 451.36041164 C59.09497366 451.36516036 59.09497366 451.36516036 60.79543531 451.37000501 C75.89239853 451.41210059 90.98933625 451.44506123 106.08635426 451.4573555 C116.26597921 451.46573053 126.44546809 451.4882006 136.62502497 451.52671117 C142.01315316 451.54649062 147.40107783 451.55887011 152.78924465 451.55387688 C157.85774841 451.54923712 162.9258663 451.56299916 167.99429226 451.59088898 C169.85426536 451.59781206 171.71427827 451.59791534 173.57425022 451.59068871 C176.11449641 451.58181597 178.6534658 451.59746772 181.19360828 451.61917496 C181.92892885 451.61073242 182.66424941 451.60228988 183.42185241 451.59359151 C188.4739381 451.67337076 191.36927951 452.94848825 195.25993824 456.13142776 C196.99759367 459.60673863 196.85579176 463.34022787 196.25993824 467.13142776 C193.7302535 470.41318095 192.18262493 471.82386554 188.25993824 473.13142776 C185.67292387 473.23136428 183.1127504 473.27487042 180.52554798 473.27186966 C179.33172216 473.27632634 179.33172216 473.27632634 178.11377865 473.28087306 C175.4377972 473.28956807 172.76186045 473.29106901 170.08586597 473.29256058 C168.17063775 473.29718832 166.25541044 473.30221292 164.34018421 473.30760574 C159.12911316 473.32073921 153.918055 473.32717699 148.70696998 473.3316164 C145.45031768 473.33454666 142.19366892 473.33865146 138.93701839 473.34312057 C128.74523829 473.35680033 118.55346624 473.36646366 108.36167759 473.37032247 C96.60226156 473.37479928 84.842962 473.39232768 73.08358139 473.42132306 C63.99214231 473.44296034 54.90073594 473.4530279 45.8092714 473.45436358 C40.38078338 473.45541049 34.95240477 473.46129356 29.5239439 473.4791832 C24.41284388 473.49569836 19.30193508 473.49780262 14.19081783 473.48904419 C12.31960633 473.48827556 10.44838441 473.49259347 8.57719898 473.50250244 C-4.34392293 473.56688709 -15.83844028 473.58587924 -25.74006176 464.13142776 C-31.81017979 457.3593233 -35.11083905 450.84151464 -35.12596512 441.6662302 C-35.13122423 440.94418963 -35.13648334 440.22214907 -35.14190182 439.47822848 C-35.15583418 437.06389515 -35.14849838 434.65010763 -35.14120007 432.23575211 C-35.14680645 430.48521839 -35.15370939 428.73468843 -35.16179603 426.98416442 C-35.18014436 422.17743521 -35.17974997 417.37086258 -35.17621291 412.56410635 C-35.17560073 407.37851446 -35.19215868 402.19297281 -35.20638561 397.00740433 C-35.23130433 386.84887698 -35.23955011 376.69040185 -35.24122275 366.5318465 C-35.24264837 358.27362225 -35.24881332 350.01541523 -35.25832462 341.75719643 C-35.28474495 318.34088311 -35.29858277 294.92461103 -35.2963332 271.5082827 C-35.29621333 270.24592008 -35.29609346 268.98355747 -35.29596996 267.68294144 C-35.29584732 266.41903639 -35.29572468 265.15513135 -35.29559832 263.85292616 C-35.29437912 243.37221776 -35.32308283 222.89167488 -35.36538506 202.41101436 C-35.40848322 181.37893219 -35.42919521 160.34693074 -35.42660373 139.3148033 C-35.42560801 127.50796405 -35.43384091 115.70129829 -35.46613789 103.89449883 C-35.49346216 93.84115242 -35.49997139 83.78805812 -35.47960962 73.73469064 C-35.46981804 68.60702913 -35.46962785 63.47985123 -35.49566936 58.35223579 C-35.51928754 53.65336759 -35.51494897 48.95536582 -35.48881697 44.25651857 C-35.48421681 42.56136685 -35.48964277 40.86615024 -35.5063972 39.17107508 C-35.61047035 27.89003074 -34.42683881 18.34927507 -26.46463877 9.64351016 C-18.60772665 2.1045504 -10.72785189 -0.02640889 0 0 Z M-12.55256176 26.00642776 C-23.9609326 46.42140716 -14.74006176 72.74505761 -14.74006176 96.13142776 C141.01993824 96.13142776 296.77993824 96.13142776 457.25993824 96.13142776 C459.46632599 60.68235731 459.46632599 60.68235731 455.25993824 26.13142776 C450.42187459 21.41741702 446.33045494 20.9839713 439.84850311 21 C438.70128982 20.99692105 438.70128982 20.99692105 437.53090051 20.9937799 C434.94721158 20.98808878 432.3635756 20.98956974 429.77988148 20.99098587 C427.91715808 20.98840345 426.05443523 20.98539063 424.19171315 20.98198247 C419.05656075 20.97389484 413.92142232 20.97212192 408.7862643 20.971385 C403.25444943 20.96953752 397.72264185 20.96199176 392.19083118 20.95524979 C380.08768716 20.94165372 367.98454644 20.93563985 355.88139606 20.93123913 C348.32848684 20.92847902 340.7755789 20.92424211 333.22267056 20.91973495 C312.32310514 20.90754093 291.42354041 20.89720628 270.52397156 20.89385986 C269.17220837 20.89363823 267.82044519 20.89341645 266.46868201 20.89319451 C265.11363208 20.89297387 263.75858214 20.89275339 262.40353221 20.89253306 C259.68501325 20.89209051 256.9664943 20.89164339 254.24797535 20.89119339 C253.23692182 20.8910293 253.23692182 20.8910293 252.20544297 20.8908619 C230.34459765 20.88723041 208.48378548 20.87130703 186.62295286 20.84800303 C163.51708651 20.82341677 140.41123548 20.80969433 117.30535394 20.80849195 C104.70727749 20.80757405 92.10924444 20.80179303 79.51117992 20.78367233 C68.78532441 20.76829925 58.05952571 20.76313436 47.33366128 20.77141044 C41.85855888 20.77532677 36.38357098 20.77433948 30.90848255 20.76035309 C25.89912625 20.74767313 20.88997118 20.74875948 15.88061539 20.7609438 C14.06566898 20.76291108 12.2507086 20.75977517 10.43578186 20.75109944 C7.97324063 20.74007061 5.51141756 20.74744959 3.04889679 20.75949097 C2.34035227 20.75189577 1.63180776 20.74430058 0.9017922 20.73647523 C-4.53232542 20.79404016 -8.72513382 22.04701955 -12.55256176 26.00642776 Z " fill="#000000" transform="translate(34.74006175994873,19.868572235107422)"/>
<path d="M0 0 C1.31955688 -0.00855011 1.31955688 -0.00855011 2.66577148 -0.01727295 C4.53188883 -0.02672321 6.39802286 -0.03325704 8.26416016 -0.03710938 C11.08657099 -0.04674382 13.90823103 -0.07773667 16.73046875 -0.109375 C31.47502542 -0.19854111 42.77953576 0.81668724 54.125 11.203125 C60.44286014 18.58897372 64.10921484 27.44789862 64.125 37.203125 C63.33051976 47.05467992 59.34915093 54.95446564 54.125 63.203125 C54.52332031 63.76 54.92164063 64.316875 55.33203125 64.890625 C61.87599649 74.31648247 65.21235662 83.06183263 63.5 94.640625 C61.39503301 104.72751381 56.37681438 113.29433126 48 119.390625 C37.35439647 125.9021896 26.15365373 125.67726711 14.05273438 125.59423828 C11.23519362 125.57803988 8.41906187 125.59421105 5.6015625 125.61328125 C3.79947602 125.61130074 1.99739041 125.60746104 0.1953125 125.6015625 C-0.64119843 125.60763519 -1.47770935 125.61370789 -2.33956909 125.6199646 C-7.00126392 125.56380537 -10.11990166 125.25787113 -13.875 122.203125 C-16.4701817 119.27058347 -17.25137023 117.45298446 -17.26940918 113.54849243 C-17.28643387 112.15229424 -17.28643387 112.15229424 -17.30380249 110.72789001 C-17.30087189 109.71376541 -17.29794128 108.69964081 -17.29492188 107.65478516 C-17.30339142 106.58119247 -17.31186096 105.50759979 -17.32058716 104.401474 C-17.34400893 100.84825838 -17.34497799 97.29547452 -17.34375 93.7421875 C-17.35084882 91.27362901 -17.3585474 88.80507217 -17.36682129 86.33651733 C-17.38027832 81.15984513 -17.38182948 75.98332545 -17.37597656 70.80664062 C-17.37008185 64.17296019 -17.40065805 57.54001197 -17.44109344 50.90647316 C-17.46694486 45.80722104 -17.46985008 40.70814575 -17.46620178 35.60883713 C-17.46789565 33.16320329 -17.47756369 30.71756151 -17.49534607 28.27199173 C-17.51748208 24.85091446 -17.50785912 21.43132611 -17.49023438 18.01025391 C-17.50349762 17.00017776 -17.51676086 15.99010162 -17.53042603 14.94941711 C-17.47658586 10.4513445 -17.37813236 7.20408732 -14.52404785 3.59017944 C-10.06004523 -0.43232898 -5.71447603 0.0286784 0 0 Z M4.125 21.203125 C4.125 31.433125 4.125 41.663125 4.125 52.203125 C8.415 52.30625 12.705 52.409375 17.125 52.515625 C18.46175781 52.56114502 19.79851562 52.60666504 21.17578125 52.65356445 C28.43004151 52.7377269 33.63113371 52.21777265 39.125 47.203125 C41.88805146 43.727028 42.85958568 40.62669699 43.125 36.203125 C41.96408253 29.58589541 39.22515907 26.42038439 33.85668945 22.58081055 C30.57410679 20.92529048 28.39276525 20.85808568 24.73046875 20.91015625 C23.64660889 20.91764893 22.56274902 20.9251416 21.44604492 20.93286133 C20.0819751 20.96017334 18.71790527 20.98748535 17.3125 21.015625 C10.7846875 21.1084375 10.7846875 21.1084375 4.125 21.203125 Z M4.125 73.203125 C4.125 83.433125 4.125 93.663125 4.125 104.203125 C8.415 104.30625 12.705 104.409375 17.125 104.515625 C18.46175781 104.56114502 19.79851562 104.60666504 21.17578125 104.65356445 C28.43004151 104.7377269 33.63113371 104.21777265 39.125 99.203125 C41.88805146 95.727028 42.85958568 92.62669699 43.125 88.203125 C41.96408253 81.58589541 39.22515907 78.42038439 33.85668945 74.58081055 C30.57410679 72.92529048 28.39276525 72.85808568 24.73046875 72.91015625 C23.64660889 72.91764893 22.56274902 72.9251416 21.44604492 72.93286133 C20.0819751 72.96017334 18.71790527 72.98748535 17.3125 73.015625 C10.7846875 73.1084375 10.7846875 73.1084375 4.125 73.203125 Z " fill="#000000" transform="translate(114.875,213.796875)"/>
<path d="M0 0 C1.57186249 -0.00576172 1.57186249 -0.00576172 3.17547977 -0.01163983 C4.33061514 -0.01077335 5.4857505 -0.00990687 6.67588997 -0.00901413 C8.5120417 -0.01347081 8.5120417 -0.01347081 10.3852874 -0.01801753 C13.78934391 -0.02520602 17.19334996 -0.02787748 20.59741044 -0.028615 C24.26620504 -0.03046433 27.93498867 -0.038011 31.60377693 -0.04475021 C39.62847095 -0.05833841 47.65315998 -0.06435886 55.6778636 -0.06876087 C60.68662783 -0.07152217 65.69539013 -0.07575929 70.70415306 -0.08026505 C84.56689203 -0.09245777 98.42962944 -0.10275745 112.29237366 -0.10614014 C113.17979386 -0.1063597 114.06721406 -0.10657927 114.98152579 -0.10680549 C116.31586999 -0.10713291 116.31586999 -0.10713291 117.67717063 -0.10746694 C119.47981381 -0.10791041 121.28245699 -0.10835697 123.08510017 -0.10880661 C123.97927655 -0.10902804 124.87345292 -0.10924947 125.79472555 -0.10947761 C140.28913253 -0.11342707 154.78348927 -0.13088559 169.27787684 -0.15416613 C184.1523512 -0.17786474 199.02680033 -0.19034129 213.90129387 -0.19150805 C222.25551725 -0.1924256 230.60967517 -0.19819783 238.96388054 -0.21632767 C246.07647176 -0.23170847 253.18897728 -0.23686106 260.30158196 -0.22858956 C263.93156447 -0.22467601 267.56137429 -0.22564682 271.19133568 -0.23964691 C275.12408773 -0.25467637 279.05659517 -0.24654029 282.98936653 -0.23606491 C284.14004045 -0.24412132 285.29071438 -0.25217772 286.47625721 -0.26047826 C287.52938102 -0.25388841 288.58250484 -0.24729857 289.6675415 -0.24050903 C291.02924746 -0.24140467 291.02924746 -0.24140467 292.41846263 -0.24231839 C296.32115238 0.33167988 298.97035578 2.17628393 301.77211189 4.88142776 C303.53059919 8.21329843 303.47223676 10.41489749 302.95961189 14.13142776 C300.93593294 17.60502229 298.84944366 19.83481718 294.95961189 21.13142776 C293.28151553 21.22495076 291.59992263 21.26054695 289.91922379 21.26285553 C288.87131546 21.26669667 287.82340714 21.27053782 286.74374402 21.27449536 C285.58860865 21.27362888 284.43347328 21.2727624 283.24333382 21.27186966 C282.01923266 21.27484078 280.79513151 21.2778119 279.53393638 21.28087306 C276.12987988 21.28806155 272.72587383 21.29073301 269.32181334 21.29147053 C265.65301875 21.29331986 261.98423512 21.30086653 258.31544685 21.30760574 C250.29075283 21.32119394 242.2660638 21.32721439 234.24136019 21.3316164 C229.23259595 21.3343777 224.22383365 21.33861482 219.21507072 21.34312057 C205.35233176 21.3553133 191.48959434 21.36561298 177.62685013 21.36899567 C176.73942993 21.36921523 175.85200972 21.3694348 174.937698 21.36966102 C173.6033538 21.36998843 173.6033538 21.36998843 172.24205315 21.37032247 C170.43940997 21.37076593 168.63676679 21.3712125 166.83412361 21.37166214 C165.93994724 21.37188357 165.04577086 21.372105 164.12449823 21.37233314 C149.63009126 21.3762826 135.13573451 21.39374112 120.64134695 21.41702166 C105.76687259 21.44072027 90.89242346 21.45319682 76.01792991 21.45436358 C67.66370653 21.45528113 59.30954862 21.46105336 50.95534325 21.4791832 C43.84275203 21.494564 36.7302465 21.49971659 29.61764182 21.49144509 C25.98765932 21.48753154 22.35784949 21.48850235 18.72788811 21.50250244 C14.79513606 21.5175319 10.86262861 21.50939582 6.92985725 21.49892044 C5.77918333 21.50697685 4.62850941 21.51503325 3.44296658 21.52333379 C2.38984276 21.51674394 1.33671894 21.5101541 0.25168228 21.50336456 C-1.11002368 21.5042602 -1.11002368 21.5042602 -2.49923885 21.50517392 C-6.40192859 20.93117565 -9.05113199 19.0865716 -11.85288811 16.38142776 C-13.6113754 13.0495571 -13.55301297 10.84795804 -13.04038811 7.13142776 C-9.78753152 1.54798044 -6.27097091 0.0086137 0 0 Z " fill="#000000" transform="translate(111.0403881072998,415.8685722351074)"/>
<path d="M0 0 C9.31303857 5.46634873 14.84391275 13.16264029 17.8666687 23.48532104 C19.08131158 29.08398793 18.96264104 34.70324291 18.94921875 40.41015625 C18.9544606 41.72387711 18.95970245 43.03759796 18.96510315 44.39112854 C18.97397921 47.15709121 18.97167474 49.92276431 18.96166992 52.6887207 C18.95018538 56.2031936 18.97041051 59.71666085 18.99958706 63.23100185 C19.02252554 66.62410319 19.01547469 70.01697966 19.01171875 73.41015625 C19.02295273 74.6563121 19.03418671 75.90246796 19.04576111 77.18638611 C18.94681031 89.71914485 15.5200638 99.05908554 6.92578125 108.16015625 C-0.6039072 115.26463876 -10.43032456 117.81259639 -20.54296875 117.69140625 C-31.16961799 116.91522337 -39.71667226 111.90834761 -46.94921875 104.296875 C-53.17325789 96.91671663 -55.00164344 88.72506113 -54.8828125 79.23046875 C-54.46921481 76.37177882 -54.06437071 75.28906548 -52.046875 73.2890625 C-51.20125 72.6909375 -50.355625 72.0928125 -49.484375 71.4765625 C-48.989375 70.9815625 -48.989375 70.9815625 -48.484375 70.4765625 C-43.74084689 69.99416981 -41.42234223 69.98103264 -37.171875 72.2265625 C-33.6079033 75.57018111 -33.22371652 79.97899141 -32.25390625 84.58984375 C-31.14500362 88.74963585 -29.66331632 90.60037749 -26.484375 93.4765625 C-22.53178837 95.76490213 -18.99532161 95.87225957 -14.484375 95.4765625 C-9.80267232 93.73239876 -7.27188309 91.60620411 -4.484375 87.4765625 C-3.59798111 84.81738084 -3.30448475 82.99591609 -3.16796875 80.24609375 C-3.10512695 79.04243164 -3.10512695 79.04243164 -3.04101562 77.81445312 C-3.00169922 76.98107422 -2.96238281 76.14769531 -2.921875 75.2890625 C-2.87869141 74.44408203 -2.83550781 73.59910156 -2.79101562 72.72851562 C-2.68505982 70.64471817 -2.5842248 68.56066147 -2.484375 66.4765625 C-3.07863281 66.693125 -3.67289062 66.9096875 -4.28515625 67.1328125 C-15.17307792 70.7903414 -25.25962072 70.54423989 -35.640625 65.41015625 C-44.16180895 60.44492791 -50.42705643 53.65597227 -53.5625 44.23828125 C-56.28736333 33.11945335 -55.30363917 22.37226553 -49.484375 12.4765625 C-38.66816051 -3.72030692 -17.18100542 -8.40273216 0 0 Z M-30.8046875 22.984375 C-33.82649209 27.52764763 -34.44894346 32.13733507 -33.484375 37.4765625 C-30.78258037 42.7800853 -27.18940605 46.57488548 -21.484375 48.4765625 C-16.22671555 48.87336699 -12.92334658 48.37154396 -8.484375 45.4765625 C-4.5330725 41.57851206 -2.63920994 38.33458175 -2.171875 32.7265625 C-2.25575625 28.16342257 -3.51636227 24.94509809 -6.484375 21.4765625 C-10.61024704 17.85306348 -14.84959945 16.81101217 -20.27734375 17.09765625 C-24.68852335 17.85497381 -27.85592282 19.61685084 -30.8046875 22.984375 Z " fill="#000000" transform="translate(395.484375,269.5234375)"/>
<path d="M0 0 C0.81589478 -0.00523668 1.63178955 -0.01047336 2.47240841 -0.01586872 C5.20993668 -0.0308863 7.94727832 -0.03157426 10.68484497 -0.03224182 C12.64612138 -0.03986208 14.6073948 -0.04828934 16.56866455 -0.0574646 C21.89924481 -0.07942855 27.22976769 -0.08821096 32.56038809 -0.09329104 C35.88988649 -0.09693211 39.2193698 -0.10317083 42.54886246 -0.11029243 C54.16190503 -0.13479267 65.77490288 -0.14784026 77.38796997 -0.15138245 C88.21711909 -0.15501907 99.04598503 -0.18492214 109.87504756 -0.22678703 C119.16942248 -0.26146071 128.46370341 -0.27693037 137.75814259 -0.27762848 C143.31063992 -0.27842223 148.86284881 -0.28720627 154.41527939 -0.31562614 C159.63729133 -0.34175686 164.85877465 -0.34403981 170.08082199 -0.3279705 C171.99726003 -0.32615209 173.91372813 -0.33288202 175.83010101 -0.34878922 C178.44709532 -0.36918755 181.06222916 -0.35873569 183.67919922 -0.34057617 C184.43718335 -0.35377614 185.19516748 -0.36697611 185.97612083 -0.38057607 C189.84624138 -0.31925644 192.40801148 0.23585411 195.4181385 2.59773159 C198.59673194 5.93594829 199.04690699 7.69570178 198.96658325 12.27415466 C197.76844227 15.73545083 196.74704313 17.66510868 193.85467529 19.92222023 C190.15956057 21.65192716 186.8784304 21.690649 182.8821106 21.65510559 C182.07282293 21.65978556 181.26353527 21.66446553 180.42972374 21.66928732 C177.72048891 21.68124436 175.01175925 21.67177738 172.30252075 21.66233826 C170.35917872 21.66640364 168.415839 21.67174534 166.47250366 21.67826843 C161.19571522 21.69195172 155.91910263 21.68663916 150.6423111 21.67713118 C145.121979 21.66953986 139.60166203 21.67657872 134.08132935 21.68128967 C124.81063125 21.68674876 115.54000484 21.67955158 106.26931763 21.66526794 C95.54868767 21.64894117 84.82822888 21.65422957 74.10760307 21.67074716 C64.90578686 21.68435765 55.7040222 21.68628382 46.50219917 21.67843115 C41.00517089 21.67375224 35.50822308 21.67313581 30.01119995 21.68304062 C24.84343192 21.6917016 19.67588472 21.68570416 14.50814056 21.66835785 C12.61064775 21.66438838 10.71313639 21.66553491 8.81565094 21.67214584 C6.22720101 21.68033321 3.63946053 21.67007389 1.05105591 21.65510559 C0.29862295 21.66179776 -0.45381001 21.66848992 -1.22904396 21.67538488 C-6.72825474 21.61362398 -9.92400472 20.31082835 -13.84591675 16.52415466 C-15.5621 13.27243902 -15.41503763 10.89955304 -15.03341675 7.27415466 C-13.82156634 4.54749126 -12.88050965 2.86421235 -10.42613029 1.15457058 C-6.98192068 -0.11275077 -3.62192004 -0.01147261 0 0 Z " fill="#000000" transform="translate(256.0334167480469,67.72584533691406)"/>
<path d="M0 0 C9.4537956 5.63509147 15.7045624 13.843813 18.58203125 24.5390625 C19.58881966 37.15660554 18.23577352 46.87527554 10.60546875 57.2421875 C4.33035399 64.36529074 -5.128977 68.99471157 -14.5625 69.69921875 C-25.13745849 70.08224874 -34.26024853 67.35515388 -42.41796875 60.5390625 C-49.60173771 53.79627738 -53.83196399 45.87539135 -54.62109375 35.99609375 C-54.8244409 24.52392513 -51.6260675 15.6151777 -44.16796875 6.9140625 C-31.44399898 -4.07482048 -15.54053426 -7.61082252 0 0 Z M-29.41796875 21.5390625 C-32.8598563 26.24740126 -34.17655952 30.68707652 -33.41796875 36.5390625 C-31.52469379 41.7981596 -28.8201366 44.32914844 -24.41796875 47.5390625 C-19.75544017 49.09323869 -15.93043548 49.08355052 -11.29296875 47.4140625 C-7.35504557 44.84585173 -4.54684292 41.79681085 -2.41796875 37.5390625 C-1.60816781 31.02082873 -2.49510662 26.80395642 -6.41796875 21.5390625 C-9.93164104 18.2763668 -12.66557956 17.25967944 -17.35546875 17.0390625 C-22.17825371 17.27113636 -25.85880796 18.16871661 -29.41796875 21.5390625 Z " fill="#000000" transform="translate(306.41796875,269.4609375)"/>
<path d="M0 0 C2.38312703 1.89428046 3.6500559 3.30011179 5 6 C5.10694323 8.71403615 5.1541641 11.40349212 5.15771484 14.11816406 C5.16533592 15.37698647 5.16533592 15.37698647 5.17311096 16.66123962 C5.18382665 18.48752034 5.19244211 20.31381429 5.19923019 22.14011383 C5.21100424 25.03201692 5.23045426 27.92376966 5.25234985 30.81561279 C5.31400888 39.03929632 5.36798083 47.26296573 5.40136719 55.48681641 C5.42232856 60.51427973 5.45764699 65.54147115 5.50212479 70.56877899 C5.51627695 72.48405503 5.52500545 74.3993792 5.52817917 76.3147049 C5.53309532 78.9981778 5.55627244 81.6809314 5.58349609 84.36425781 C5.57898689 85.54745857 5.57898689 85.54745857 5.5743866 86.75456238 C5.64641606 91.54260908 6.35144404 94.85499491 9 99 C12.26675133 101.12718691 15.30029775 102.09416557 19.0625 102.875 C23.27727129 103.88622152 25.49882267 105.32639579 28 109 C28.69783203 112.15168398 28.72986492 114.85245754 28 118 C25.81840855 120.75569447 24.12822506 122.43588747 21 124 C10.76732351 124.73090546 1.83005467 121.6600465 -6 115 C-14.11007586 106.28786611 -16.1444541 97.1106306 -16.16113281 85.41186523 C-16.16609772 84.5704599 -16.17106262 83.72905457 -16.17617798 82.8621521 C-16.19071753 80.09429086 -16.19758577 77.32648681 -16.203125 74.55859375 C-16.20888064 72.62858581 -16.21463832 70.69857787 -16.22039795 68.76856995 C-16.23088275 64.72958104 -16.23674274 60.69061191 -16.24023438 56.65161133 C-16.2457317 51.47761238 -16.2697967 46.3038749 -16.29820633 41.12995815 C-16.31682611 37.14682751 -16.32203783 33.16376017 -16.32357025 29.18058968 C-16.32659583 27.27281315 -16.33462115 25.36503771 -16.34775543 23.457304 C-16.36481158 20.79091233 -16.36293748 18.12516433 -16.35644531 15.45874023 C-16.3656601 14.67262863 -16.37487488 13.88651703 -16.3843689 13.07658386 C-16.34967097 8.52695143 -15.8013069 5.62390154 -13 2 C-8.85474782 -1.5530733 -5.03829783 -1.5810558 0 0 Z " fill="#000000" transform="translate(212,215)"/>
<path d="M0 0 C2.82275936 1.25455972 4.46288541 2.28384722 6.3125 4.75 C7.50202252 8.64298281 7.462582 12.33470481 6.375 16.25 C4.23766484 18.97024475 2.2548109 19.85478876 -1 21 C-4.91776747 21.19588837 -8.08608385 20.58584369 -11.4375 18.4375 C-13.61125322 15.04644497 -14.20788713 12.01382079 -14 8 C-11.14641315 1.24150483 -7.2032171 -0.75823338 0 0 Z " fill="#000000" transform="translate(120,68)"/>
<path d="M0 0 C3.33513484 2.16783765 3.87155493 3.53759776 4.9375 7.375 C5.01063139 11.61662038 4.4372021 13.54074541 2 17 C-1.41234859 19.40415469 -3.38189691 20 -7.5625 20 C-11.82964117 18.75864984 -13.47631975 17.67080764 -16 14 C-16.70205856 10.84929815 -16.72977891 8.14717157 -16 5 C-11.10731336 -1.18023575 -7.36265979 -1.6638039 0 0 Z " fill="#000000" transform="translate(172,69)"/>
<path d="M0 0 C2.86916187 2.51051663 3.78664803 4.33149715 4.9375 7.9375 C5.01772383 11.86846755 4.2269509 13.76732933 2 17 C-1.41234859 19.40415469 -3.38189691 20 -7.5625 20 C-11.82964117 18.75864984 -13.47631975 17.67080764 -16 14 C-16.70205856 10.84929815 -16.72977891 8.14717157 -16 5 C-11.19738834 -1.06645683 -7.27922186 -1.87809105 0 0 Z " fill="#000000" transform="translate(73,69)"/>
<path d="M0 0 C3.49406769 1.66762322 4.82670681 2.74006022 7 6 C7.83118291 10.67212286 7.6533383 14.01999255 5 18 C1.29190656 20.47206229 -1.5458602 21.4271093 -6 21 C-10.16877912 19.14720928 -11.61441076 17.81744918 -13.5625 13.6875 C-14.10611213 9.10562634 -13.35065577 6.94303548 -11 3 C-7.42238679 0.00254028 -4.60493472 -0.57561684 0 0 Z " fill="#000000" transform="translate(266,472)"/>
</svg>
